<svg xmlns="http://www.w3.org/2000/svg" viewBox="0 0 175.9 175.9">
  <radialGradient id="a" cx="82.267" cy="188.87" r="225.671" gradientUnits="userSpaceOnUse">
    <stop offset=".092" stop-color="#faf707"/>
    <stop offset=".73" stop-color="#fffc00"/>
  </radialGradient>
  <path d="M175.9 139.8c0 20-16.2 36.1-36.1 36.1H36.1c-20 0-36.1-16.2-36.1-36.1V36.1C0 16.2 16.2 0 36.1 0h103.7c20 0 36.1 16.2 36.1 36.1v103.7z" fill="url(#a)"/>
  <path d="M57.1 48.9c.2-.5.5-1 .7-1.5 1.5-3 3.4-5.7 5.7-8.1 2-2 4.2-3.8 6.6-5.2 2.1-1.2 4.4-2.2 6.7-2.9 1.9-.6 3.9-1 5.8-1.2 1.9-.2 3.8-.3 5.7-.3 1.9 0 3.8.1 5.7.4 2 .3 4.1.8 6 1.4 2.4.8 4.6 1.8 6.8 3.1 2.4 1.5 4.7 3.4 6.6 5.5 2.3 2.6 4.1 5.5 5.5 8.6 2.6 5.9 1.9 16.5 1.4 25-.1 1.3-.2 2.7-.2 3.9v.5l.3.4c.1.2 1.5 1.6 4.5 1.7h.1c1.3 0 2.6-.3 3.9-.7 1.1-.4 2.2-1 3.4-1.2 1.3-.3 3.5.3 4.3 1.3.8 1-.1 2.2-.8 2.8-1.1.9-2.4 1.5-3.7 2-.5.2-1 .4-1.7.6-3 .9-7.4 2.4-8.9 5.9-.8 2-.6 4.3.7 7 .5 1.2 9 20.2 27.9 23.4 0 .1 0 .2-.1.3-.3.8-2.4 3.4-15.1 5.3-2 .3-2.5 2.5-3 5.1-.2.9-.4 1.9-.7 2.8-.1.3-.1.3-.4.3h-.1c-.6 0-1.4-.1-2.4-.3-1.8-.3-4.3-.8-7.4-.8-1.8 0-3.6.1-5.4.5-3.9.7-7.1 2.9-10.4 5.3-2.1 1.5-4.1 2.9-6.4 4-2.5 1.2-5.1 2.1-7.8 2.3-.6.1-1.2.1-1.8.1-2.9.1-5.8-.2-8.6-1.1-2.4-.8-4.7-2.1-6.8-3.5-.9-.6-1.7-1.2-2.6-1.8-3.4-2.4-6.5-4.6-10.4-5.3-1.8-.3-3.6-.5-5.4-.5-3.2 0-5.6.5-7.4.8-1 .2-1.8.4-2.4.4-.5 0-.5 0-.6-.4-.3-1-.5-1.9-.7-2.9-.6-2.6-1.1-4.8-3-5.1-12.7-2-14.8-4.6-15.1-5.3 0-.1-.1-.2-.1-.3 19-3.1 27.4-22.1 27.9-23.4 1.3-2.6 1.5-5 .7-7-1.5-3.5-6-5-8.9-5.9-.7-.2-1.3-.4-1.7-.6-1.7-.7-7.1-3.2-3.6-5.3.8-.5 1.6-.8 2.5-.7.9.1 1.8.5 2.6.8 1.7.6 3.5 1.1 5.4 1.1 3.3 0 4.8-1.5 4.9-1.7l.3-.4v-.5c-.1-1.2-.1-2.6-.2-3.9-.8-8.4-1.4-19 1.2-24.8zm14.6-19c-3.6 1.6-6.8 3.7-9.5 6.3-3.3 3.1-6 7-7.9 11.4-2.9 6.5-2.2 17.5-1.7 26.4.1.9.1 1.9.2 2.9-.4.2-1.1.4-2.1.4-1.5 0-3-.4-4.4-1-1.2-.5-2.4-1-3.8-1-1.3 0-2.6.4-3.7 1.1-1.5.9-2.5 2.1-2.8 3.5-.2.9-.2 2.7 1.9 4.6 1.1 1 2.7 1.9 4.9 2.8.6.2 1.2.4 1.9.6 2.4.8 6.1 1.9 7 4.2.5 1.1.3 2.6-.6 4.4 0 0 0 .1-.1.1-1.1 2.6-2.6 5-4.3 7.3-2.6 3.5-5.6 6.8-9.2 9.3-1.9 1.3-3.9 2.4-6 3.3-1.9.7-3.9 1.1-5.9 1.6-1.6.4-2.9 1.5-2.8 3.3 0 .5.1.9.3 1.3.6 1.5 2.1 2.7 4.4 3.8 2.9 1.3 7.2 2.4 12.8 3.3.3.5.6 1.9.8 2.8.2 1 .4 2 .7 3.1.3 1.2 1.2 2.6 3.5 2.6.9 0 1.8-.2 3-.4 1.7-.3 4-.8 6.8-.8 1.6 0 3.2.1 4.9.4 3.2.5 5.9 2.5 9.1 4.7.3.2.5.4.8.6 2 1.4 4 2.7 6.1 3.8 2.4 1.2 5 2 7.6 2.4 1.5.2 3.1.2 4.6.2 1.7 0 3.4-.1 5.1-.4 2.6-.5 5.1-1.5 7.4-2.7 1.1-.6 2.1-1.2 3.1-1.9.9-.6 2-1.2 2.8-2 3.2-2.3 5.9-4.2 9.1-4.7 1.7-.3 3.3-.4 4.9-.4 2.7 0 4.9.4 6.8.7 1.3.2 2.2.4 3 .4h.2c1.7 0 2.9-.9 3.3-2.5.3-1.1.5-2 .7-3 .2-.9.5-2.3.8-2.8 5.6-.9 9.9-2 12.7-3.3 2.3-1.1 3.8-2.3 4.4-3.8.2-.4.3-.9.3-1.3.1-1.6-1-2.9-2.6-3.2-17.4-2.9-25.3-20.8-25.6-21.5 0-.1-.1-.1-.1-.1-.9-1.8-1.1-3.3-.6-4.4 1-2.2 4.6-3.4 7-4.2.7-.2 1.4-.4 1.9-.6 2.4-.9 4.1-2 5.2-3.1 1.3-1.4 1.6-2.7 1.6-3.6-.1-3.4-3.4-5.2-6.4-5.3-1.4 0-3.2.5-4.5 1-1.3.5-2.7.9-4.2 1-.8 0-1.4-.2-1.8-.4.1-.8.1-1.6.2-2.5v-.4c.5-8.9 1.3-19.9-1.7-26.4-2-4.5-4.7-8.3-8-11.5-2.8-2.6-6-4.7-9.5-6.3-3.6-1.6-7.5-2.6-11.5-3-1.5-.1-3.1-.3-4.6-.3-3.3 0-6.8.4-10 1.2-1.7.4-3.8 1.1-5.9 2z" fill="#020202"/><path d="M135 126.9c12.7-2 14.7-4.6 15.1-5.3.1-.1.1-.2.1-.3-19-3.1-27.4-22.1-27.9-23.4-1.3-2.7-1.5-5-.7-7 1.5-3.5 6-5 8.9-5.9.7-.2 1.3-.4 1.7-.6 1.3-.5 2.6-1.1 3.7-2 .8-.6 1.7-1.9.8-2.8-.9-1-3.1-1.6-4.3-1.3-1.2.3-2.3.9-3.4 1.2-1.3.4-2.6.7-3.9.7h-.1c-3-.1-4.4-1.5-4.5-1.7l-.3-.4v-.5c.1-1.3.1-2.6.2-3.9.5-8.5 1.2-19.1-1.4-25-1.4-3.1-3.2-6-5.5-8.6-1.9-2.2-4.1-4-6.6-5.5-2.1-1.3-4.4-2.4-6.8-3.1-2-.7-4-1.1-6-1.4-1.9-.3-3.8-.3-5.7-.4-1.9 0-3.8.1-5.7.3-2 .2-3.9.7-5.8 1.2-2.3.7-4.6 1.7-6.7 2.9-2.4 1.4-4.7 3.1-6.6 5.2-2.3 2.4-4.2 5.1-5.7 8.1-.2.5-.5 1-.7 1.5-2.6 5.9-1.9 16.4-1.4 25 .1 1.3.2 2.7.2 3.9v.5l-.3.4c-.2.2-1.6 1.7-4.9 1.7-1.8 0-3.7-.5-5.4-1.1-.9-.3-1.7-.8-2.6-.8-.9-.1-1.7.2-2.5.7-3.5 2.1 1.9 4.7 3.6 5.3.4.2 1 .4 1.7.6 3 .9 7.4 2.4 8.9 5.9.8 2 .6 4.4-.7 7-.5 1.3-9 20.2-27.9 23.4 0 .1 0 .2.1.3.3.8 2.4 3.4 15.1 5.3 2 .3 2.5 2.5 3 5.1.2.9.4 1.9.7 2.9.1.3.1.4.6.4.6 0 1.4-.2 2.4-.4 1.8-.4 4.3-.8 7.4-.8 1.8 0 3.6.1 5.4.5 3.9.7 7.1 2.9 10.4 5.3.9.6 1.7 1.2 2.6 1.8 2.1 1.4 4.4 2.7 6.8 3.5 2.8.9 5.7 1.2 8.6 1.1.6 0 1.2 0 1.8-.1 2.7-.3 5.4-1.1 7.8-2.3 2.2-1.1 4.3-2.6 6.4-4 3.4-2.4 6.5-4.6 10.4-5.3 1.8-.3 3.6-.5 5.4-.5 3.2 0 5.6.4 7.4.8 1 .2 1.8.3 2.4.3h.1c.3 0 .3 0 .4-.3.3-1 .5-1.9.7-2.8.7-2.7 1.2-5 3.2-5.3z" fill="#fff"/>
</svg>