<svg xmlns="http://www.w3.org/2000/svg" viewBox="0 0 350.8 306.4"><path d="M347.2 289.8c3.1 4.3 4.5 10.1 3 12.8h-11c-1.3-1.6-2.8-3-3.3-3s-1-.2-1-.5-.8-.5-1.8-.5-1.8-.2-1.8-.5-.7-.7-1.5-1c-.8-.3-2.8-1.1-2.8-1.3 0-.3-.5-.5-1.2-.5-.6 0-1.5-.5-1.8-1.2-.4-.6-2.1-2.2-2.7-2.2-.5 0-1.2-.4-1.5-.8-.3-.5-1.4-1.5-2-1.5s-1.9-1-2.8-2.3c-.9-1.3-2-2.5-2.3-2.7-.4-.2-1.7-1.2-1.7-1.8 0-.6-.3-1.3-.7-1.5-.4-.2-1.3-1-1.3-1.3 0-.4-.5-.7-1.2-.7-.6 0-6.4-5.3-12.8-11.8-6.4-6.5-14.3-13.1-14.3-13.5 0-.4-.4-1-1-1.3-.5-.4-3.7-1.9-3.7-2.5 0-.6-.3-1.5-.7-2-.4-.5-1.9-1.5-2.5-1.5-.6 0-1.5-.5-2-1.2-.5-.6-2.2-2.2-3.2-2.2-.9 0-3.2-.2-5-.5s-6.2-5.2-6.8-5.2-1.2-.2-1.2-.5-1-1-2.3-1.7c-1.3-.6-7.6-1.5-7.6-1.8 0-.4-.3-.7-.7-.7s-.7.3-.7.7c0 .4-1.2.8-2.7 1s-5 1-5 1.3c0 .4-.3.7-.7.7-.4 0-.7 1-.7 2.2s.4 2.5 1 2.8c.5.4 1.1 4 .8 4-.3 0-.5.2-.5.5s-.5-1.5-1.2-4c-.6-2.5-12.2-4.8-13.1-4s-1.7 2.8-1.7 4-.2 2.2-.5 2.2-.5.5-.5 1.2c0 .6-.3 1.2-.7 1.2-.4 0-.8.6-1 1.3v3.7c1.5 2.2 2.7 5.6 2.7 7.5 0 1.9-.5 3.5-1.2 3.5-.6 0-1.2.2-1.2.5s-.2.5-.5.5-.5-.2-.5-.5-2-.3-4.5-.2c-2.5.2-8.9 3.4-8.6 6.7.3 3.3-.2 12.1-1.5 12.3-1.3.2-4.7.7-4.7.3 0-.4-1-1.6-2.3-2.8-1.3-1.2-5.3-4.8-5.3-5.2 0-.4-.7-.7-1.7-.7-.9 0-2.2.1-2.8.3-.6.2-2.7 4.3-3 4.3s-.5 1.5-.5 3.3c0 1.8-.5 3.3-1.2 3.3-.6 0-.6-3 .2-6.7.7-3.7-.7-16.3-4-18.3h-13c-.7 7-1 12.6-.7 12.6.4 0 .7 1.3.7 2.8 0 1.6-.1 3.7-.3 4.7s-.3 6.7.5 10.3c.8 3.6 2.4 11.5 2.7 11.5s.6.7.8 1.5c.2.8-.3 3.2-1.5 3.2s-2.6-3.7-3.2-8.3c-.5-4.6-2.7-15.1-3.2-15-.5.2-1.5-1.1-1.5-3.3s.2-4 .5-4 .5-1.3.5-2.8c0-1.6-.4-3-.8-3.2 0 0-3-.3-3 0s-1 .5-2.3.5-2.6.5-3 1.2c-.4.6-2.6 2.2-3.8 2.2-1.2 0-2.2.3-2.2.7s-.3.7-.7.7-1.1 1.5-1.7 3.3c-.5 1.8-2.9 6.7-3.5 6.7-.6 0-1.2.3-1.2.7s-1.2.7-2.7.7-3.5-1-4.5-2.2c-1-1.2-2.1-11.5-2.3-11.5s-.5-.2-.5-.5.2-.5.5-.5.5-1.3.5-2.8c0-1.6-.2-2.8-.5-2.8s-.3-1.6-.2-3.5c.2-1.9.3-7-.2-7.1-.5-.2-3.5-.4-3.5-.2s-.8.6-1.8.8c-1 .2-4.1 1.4-4.3 2-.3.5-1 1-1.7 1-.6 0-1.2.3-1.2.7s-1.2.8-2.7 1c-1.5.2-5.3 1-5.3 1.3 0 .3-.4 1.8-1 3.2-.5 1.4-4.1 4.2-4.7 4.2-.5 0-1-.7-1-1.7 0-.9.4-1.7 1-1.7.5 0 1.4-1.3 2-2.8.5-1.6 3.2-6.6 3.8-8.3s6.5-8.1 6.5-9.6c0-1.6-.7-3.1-1.5-3.3-.8-.3-2.8-1.1-2.8-1.3 0-.3-1.6-.5-3.5-.5s-4.6-.8-6-1.8c-1.4-1-5.2-4.3-5.2-5 0-.6-.7-1.4-1.7-1.7-.9-.3-2.9-1.9-4.5-3.7-1.6-1.7-7.5-6.9-7.5-8.1 0-1.3-1.8-3.8-4-5.5s-7.2-3.3-9.8-3.2c-2.7.2-10.3.2-10.8-.3s-.1-6.7 1.3-8v-1-1.7c-1.5-2.9-5.3-5.9-8.5-6.7-3.2-.7-11.6-4.3-12.1-4.3s-2.1-1.3-3.5-2.8c-1.4-1.6-3.7-6.5-1.5-8.5v-1.3c0-.3-.3-.7-.3-1v-.3c1.6-.4 3.7-.4 4.7 0 .9.4 3.2 5 3.5 5s.5 1 .5 2.3 1.2 2.9 2.7 3.7c1.5.7 6.3 1.8 6.3 1.5 0-.3-.3-2.1-.7-4.2-.4-2-1.6-7.7-2-7.7s-.7-.3-.7-.7c0-.4.3-.7.7-.7.4 0 .7-1 .7-2.2 0-1.2-1.4-2.8-3.2-3.7-1.7-.8-3.5-6.5-3.2-6.5.4 0 .8-.6 1-1.3.2-.7-.6-4.3-2.2-4.3s-2.8-.2-2.8-.5-1.8-.5-4-.5-4 .2-4 .5-.2.5-.5.5-.5-.2-.5-.5-.2-.5-.5-.5-.5.2-.5.5-.7.3-1.5.2c-.8-.2-3-1.2-2.8-1.8s2.2-2.2 4.2-2.2c1.9 0 3.5.2 3.5.5s.4.6 1 .8H41.6c3.1-6.4 5.1-12.7 4.5-14s-2.7-3.3-3.3-3.3-1.2-.2-1.2-.5-1-.5-2.3-.5-3.2-.3-4.3-.7c-1.1-.4-.2-6.2 2.5-6.5s8-4.2 9.8-4.2 3.3-.2 3.3-.5 1-.7 2.3-1 4.3-1.4 4.3-2 .5-1.2 1.2-1.2c.6 0 1.2-.4 1.2-1 0-.5.3-1 .7-1s3.8-2.8 7.7-6.3c3.8-3.5 9.6-8.8 9.6-9.5 0-.6.8-2 1.8-3s3.7-4.6 3.5-5.7c-.2-1-3.1-5.5-6-7.5S70.4 80 69.7 80c-.6 0-2.9-1.6-5-3.7-2.1-2-7.9-8.6-8.5-8.6-.5 0-1-.5-1-1.2 0-.6-1-3-2.2-5.3s-8.1-7.7-8.1-8.3c0-.6-.7-1.7-1.5-2.3-.8-.6-2.8-2.7-2.8-3.3 0-.6-.9-1.7-2-2.3-1.1-.6-3.7-2.7-3.7-3.3v-2.5c0-.7-8.5-5.3-12-8.1s-8.8-10.8-9.5-10.8c-.6 0-1.3-.3-1.5-.7s-1.2-1.3-1.8-1.3-1.7-.7-2.3-1.5-2.5-3.2-2.8-3.2-.7-.5-.7-1.2c0-.6-1.9-1.9-4.3-2.8V5.3v-2C1.1 1.5 2.8 0 3.8 0S10 2.4 15.3 5.3l1.3 6 5.7 1.3c0 3.1.3 5.7.7 5.7s1 .4 1.5 1c.5.5 1.9 3.3 2.5 3.3.5 0 1 .5 1 1.2 0 .6 1.7 2.4 3.8 3.8 2.1 1.5 7.5 5.8 7.5 6.3s1.4 2 3.2 3.3c1.7 1.3 5.3 5.7 6 5.7.6 0 2 1.2 3 2.7s4.6 5.3 5.5 5.3 1.7-.3 1.7-.7.7-.7 1.7-.7c.9 0 1.4.6 1 1.3-.4.7 2.7 7.8 8 12v2.3c0 .7-.3 1-.3 1.3v.3c1.6.5 3 1.4 3 2 0 .5.6 1.4 1.3 1.8.7.5 4.3 2 4.3 2.7 0 .6 2.7 3.3 6 5.8H86c.4-.2.7-.6.7-.8 0-.3 2.2-1.4 5-2.5v-1.3c0-1.3-1-3.3-1-5.7v-1c.4-1.3.9-2.3 1.2-2.3.3 0 1.2-1 2-2.3s4.2-3.1 4.2-2.8.5.7 1.2 1c.6.3 2.2 1.1 2.2 1.3s-.1.5-.2.5-.1-.1 0-.2 2.7.6 5.8 1.5v6c0 2.7-2.3 5.3-2.3 8.6 0 5.7 1.7 9.3 12 9.3h1c1.1-.2 2-.6 2-1s.6.1 1.3 1h7.7c3.1-1.5 4.9-3.6 4-4.7v-1.3-.3c.2-.5.6-1 1-1s.8.7 1 1.5c.2.8 4 1.8 4 1.7 0-.1 2.2-1.4 2-2-.2-.6-.4-2.2-.2-2.2.3 0 .9.9 1.5 2h.3c7.3 0 7.4-.4 7.4-.4 2.7-17.7 5.8-32.6 6.9-33.2 1.1-.5 4.7-4 4.7-6s-1.3-7.6-1.7-7.6c-.4 0-.7-1.7-.7-3.8 0-2.1-.3-4-.7-4.3-.3-.3-1.6-1-1.6-1.3s.3-.5.7-.5c.4 0 .7-1.8.7-4s.2-4 .5-4 .5.3.5.7 1 3.4 2.3 6.7V27.9c-.5.7-.8 1.3-.5 1.3s.8 1.6 1.2 3.7v1.3c0 1.3-.3 2.3-.3 3.3v2c1.1 1.8 2 3.5 2 3.8s1.9 1.2 4.2 2.2c2.3.9 5.3 8.6 6 8.6.6 0 1.2.5 1.2 1.2 0 .6.4 1.3 1 1.5.5.2 2.3 1 2.3 1.3s.5.7 1.2.7c.6 0 1.2.2 1.2.5s.6.6 1.3.8h2.7c2-.7 3.7-1.1 3.7-.8 0 .3.5.3 1.2.2.6-.2 2.5-.5 4.2-.3 1.6.2 6 1.2 6 1.8 0 .6.7 2.4 1.7 4 .9 1.6 4.5 4.8 5.2 4.8.6 0 1.3.4 1.5.8.2.5 1.2 1.5 1.8 1.5.6 0 1.2.3 1.2.7s.7.7 1.7.7c.9 0 1.7.2 1.7.5s.7.6 1.5.8c.8.2 3.2 1 3.2 1.3 0 .4.5.7 1.2.7.6 0 1.2.2 1.2.5s.7.5 1.7.5c.9 0 1.7.2 1.7.5s1.7 1.9 3.8 3.7c2.1 1.7 8.7 9.5 9 9.5.3 0 .9 1.5 1.3 3.3.5 1.8 2 6.7 2.7 6.7.6 0 1.2.7 1.2 1.7 0 .9.2 1.7.5 1.7s.5.3.5.7 1 .7 2.3.7c1.3 0 2.3.2 2.3.5s1.8.6 4 .7c2.2.1 3.2 11.2 2.2 12.5s-1.5 8.2-1.2 9c.4.7 2.2 2 2.8 2s1.7.5 2.3 1.2c.6.6 1.2 1.7 1.2 2.3 0 .6.3 1.3.7 1.5.4.2 1.3 1.4 1.3 2.3 0 .9.3 1.7.7 1.7s.7 1.8.7 4 .2 4 .5 4 1.5 1 2.8 2.3h.7c1.7 0 2.7-2 5-2h.7c.9.4 1.7 1 1.7 1.3 0 .4-1.3.8-3 1-1.6.2-6.9 4.6-8 9.3v5.7c.4 2 1.2 3.7 1.8 3.7s1.5.6 2 1.3c.5.7 1.1 6 .7 6.5-.5.5-2 1.5-2.7 1.5-.6 0-1.2.2-1.2.5s-.5.5-1.2.5c-.6 0-1.6.5-2.2 1.2-.5.6-1 1.6-1 2.2 0 .5-.3 1-.7 1s-.1 2.5.5 5.5 1.8 13.9 2.5 14c.7.1 3.3 1.1 3.3 1.5 0 .4-.5.7-1.2.7s-1.2-.3-1.2-.7c0-.4-1-.7-2.3-.7-1.3 0-2.3 1.8-2.3 4s.3 4 .7 4 .7.5.7 1.2c0 .6.2 1.2.5 1.2s.5 1.5.5 3.3.4 3.5.8 3.7c.5.2 1.5 1.4 1.5 2 0 .5.2 1 .5 1s1.1.7 1.8 1.5 2.5 4.2 3.2 4.2c.6 0 2.1.5 3.3 1.2 1.2.6 4 5.8 4.7 5.8.6 0 1.3.3 1.5.7.2.4 1.2 1.3 1.8 1.3.6 0 1.2.3 1.2.7s1.2 1.3 2.7 2c1.5.7 6.3 2.5 6.3 3.2 0 .6 2.6 2.3 5.8 3.7 2.4.6 9.8 4.4 10.4 4.4.5 0 2 1.6 3.2 3.5 1.2 1.9 10.9 5.1 14.3 5.8 3.4.7 9.2 10 10.1 10 .9 0 9.8 12.8 12.9 17.1z"/></svg>